PathFileType	4	(X/Y/Z)	C:/Users/beibeiliu/ov580/test_trc/User1\sequence.3_training_dense_left.trc
DataRate	CameraRate	NumFrames	NumMarkers	Units	OrigDataRate	OrigDataStartFrame	OrigNumFrames
120	120	12	19	mm	120	1	242
Frame#	Time	ThumbCMC			ThumbMCP			ThumbIP			ThumbTip			IndexMCP			IndexPIP			IndexTip			MiddleMCP			MiddlePIP			MiddleTip			RingMCP			RingPIP			RingTip			PinkyMCP			PinkyPIP			PinkyTip			BackHand1			BackHand2			BackHand3	
		X0	Y0	Z0	X1	Y1	Z1	X2	Y2	Z2	X3	Y3	Z3	X4	Y4	Z4	X5	Y5	Z5	X6	Y6	Z6	X7	Y7	Z7	X8	Y8	Z8	X9	Y9	Z9	X10	Y10	Z10	X11	Y11	Z11	X12	Y12	Z12	X13	Y13	Z13	X14	Y14	Z14	X15	Y15	Z15	X16	Y16	Z16	X17	Y17	Z17	X18	Y18	Z18	
0	0	-138.208	86.5215	34.6178	-116.741	68.3245	31.5672	-91.5993	58.5523	24.575	-70.5268	48.9223	21.0086	-138.668	72.8973	-52.4309	-130.965	67.2832	-75.5007	-125.479	64.3581	-105.381	-162.392	77.7745	-67.5258	-159.098	73.0303	-94.8966	-158.158	66.8502	-124.383	-186.82	74.6886	-66.9414	-186.621	71.2618	-89.5597	-187.536	64.2163	-114.423	-221.273	68.5743	-49.0509	-226.744	64.0125	-63.7262	-230.265	64.2874	-89.5311	-193.579	96.6779	-17.234	-201.828	111.682	17.5596	-163.898	102.757	5.05039	
1	0.00833333	-139.424	85.0434	31.388	-115.592	68.6588	29.83	-95.5772	56.709	20.5911	-71.4762	47.5357	19.9771	-139.576	73.0409	-54.9004	-132.47	68.1974	-80.9719	-128.307	64.3218	-107.761	-161.977	77.3388	-70.7157	-159.118	73.1838	-93.0255	-158.84	67.1559	-125.131	-192.245	75.949	-66.4355	-186.671	70.4674	-90.6158	-187.52	64.0083	-120.198	-218.779	69.3873	-46.0027	-229.451	63.5748	-69.0959	-233.539	65.7721	-88.5223	-197.347	96.5871	-14.5734	-200.727	111.553	14.337	-163.461	101.174	3.08284	
2	0.0166667	-140.187	84.8221	33.0676	-118.336	68.5945	30.9551	-90.6899	55.8573	20.5569	-75.5532	47.7104	21.0235	-133.858	71.1178	-57.1621	-133.112	67.178	-78.8914	-125.425	63.6181	-102.834	-164.638	78.1194	-68.03	-159.212	72.3085	-94.3389	-155.978	66.7638	-122.951	-187.31	75.5998	-63.9064	-186.734	69.0544	-95.0815	-188.658	63.3674	-119.282	-220.402	69.9478	-47.4704	-229.061	63.3947	-66.8626	-232.311	62.6634	-88.9787	-197.496	97.0169	-15.5453	-200.029	109.639	14.5491	-165.376	101.468	5.3328	
3	0.025	-135.095	83.8631	29.6145	-116.822	67.2164	27.9074	-92.9275	55.9561	20.6105	-75.5066	48.324	22.6116	-136.226	71.2826	-57.4637	-127.679	67.2138	-81.3384	-130.354	63.7174	-103.293	-162.167	78.0269	-66.6247	-158.909	72.2849	-96.7528	-158.365	67.0065	-124.381	-186.328	75.4191	-66.8439	-187.43	69.7441	-94.1618	-186.566	63.9581	-114.437	-215.391	69.6443	-47.0528	-224.234	64.483	-67.965	-232.071	65.2791	-89.1725	-194.802	95.4854	-17.9279	-202.751	110.512	12.2708	-162.612	101.151	2.49495	
4	0.0333333	-140.156	84.0465	31.6242	-114.407	66.5062	27.3238	-91.2949	56.7024	23.3478	-72.051	48.4567	23.2982	-133.767	72.185	-53.5702	-129.88	68.0436	-76.7821	-125.232	64.5338	-101.694	-158.659	78.0194	-71.8443	-155.572	71.2508	-98.3912	-155.618	67.5309	-122.37	-190.832	75.1244	-66.3368	-185.58	69.8513	-95.4754	-187.842	63.0197	-119.131	-220.972	68.7898	-48.4093	-222.621	63.7602	-66.6435	-232.138	65.1987	-89.1743	-195.033	97.1353	-17.7599	-196.425	109.949	12.2612	-163.116	99.9492	2.65343	
5	0.0416667	-138.155	83.1538	28.0432	-115.757	67.29	27.131	-90.9687	55.9892	18.8299	-70.8473	48.7313	22.3864	-133.308	72.4781	-52.2569	-131.73	67.8667	-81.5949	-125.914	64.4552	-102.182	-162.908	77.9123	-71.3082	-156.52	72.8986	-95.8915	-158.34	67.8397	-124.143	-191.228	75.5183	-66.5336	-188.574	69.9844	-95.5513	-189.327	63.5858	-116.354	-218.643	69.8115	-48.7781	-222.628	64.198	-64.7563	-232.599	62.8952	-88.0433	-192.506	97.5653	-13.7304	-199.332	110.066	13.8126	-160.238	100.252	4.61929	
6	0.05	-136.129	84.2184	28.8809	-113.434	67.7271	27.7238	-94.9686	55.6785	21.6726	-74.0513	48.2854	20.9104	-136.482	72.3857	-58.2889	-129.524	67.7613	-76.9976	-128.353	64.7899	-103.241	-163.949	78.252	-72.1505	-156.904	73.273	-93.7078	-155.999	69.1975	-125.702	-187.094	75.8639	-64.0742	-187.975	70.2832	-92.6242	-185.568	64.0875	-119.921	-221.275	69.7614	-48.4782	-227.097	63.279	-69.4974	-233.157	63.3433	-90.1055	-192.178	95.937	-12.9057	-201.332	111.212	14.8361	-163.668	102.975	4.44472	
7	0.0583333	-137.905	86.1192	32.6378	-115.903	68.1182	29.6948	-89.7445	56.8987	20.5433	-72.0241	49.9924	23.4673	-135.489	72.9526	-57.1015	-127.863	67.1616	-81.6515	-129.134	65.269	-103.665	-162.13	77.6718	-71.8107	-157.845	72.5616	-94.8989	-152.357	67.7571	-127.836	-186.724	75.7367	-65.6725	-190.354	70.0171	-93.4961	-188.666	63.6208	-116.628	-221.332	70.0155	-51.2961	-225.058	64.3241	-66.6878	-233.247	62.1627	-93.2733	-197.311	96.9267	-14.466	-200.844	110.604	12.7563	-160.456	103.225	3.74473	
8	0.0666667	-137.935	83.8892	30.3929	-115.739	66.426	26.968	-94.5594	55.7808	19.3425	-71.1096	48.504	19.0293	-136.295	72.7786	-54.61	-129.445	67.3576	-82.503	-123.61	63.7039	-106.874	-162.449	78.1115	-68.2527	-160.394	72.2451	-98.5842	-156.005	67.4711	-125.379	-189.029	75.5424	-67.2733	-190.179	70.377	-92.7363	-185.73	63.071	-118.744	-220.99	70.3534	-46.5086	-225.057	64.2517	-65.2868	-233.791	63.1408	-90.5524	-194.883	95.2389	-15.1939	-202.55	110.339	15.801	-163.311	101.013	5.00068	
9	0.075	-140.992	84.4036	31.1608	-113.407	67.5582	29.7048	-92.4341	58.2058	23.5498	-75.6147	47.3533	20.2515	-135.449	71.9054	-55.3285	-133.264	67.8852	-78.2733	-128.267	64.792	-104.718	-161.156	77.5756	-70.211	-157.006	72.3315	-95.6078	-156.032	66.784	-123.669	-186.085	75.0966	-67.8848	-191.426	71.0102	-91.1073	-187.976	62.7455	-116.848	-216.755	69.5997	-46.5571	-227.302	63.0122	-67.2972	-232.117	62.1938	-89.7291	-198.096	95.9175	-15.2231	-201.832	109.741	11.8756	-162.966	101.375	5.86562	
10	0.0833333	-137.847	84.6784	29.6756	-115.472	67.717	28.6116	-92.5049	56.5172	21.0578	-71.6965	48.3253	20.4401	-137.436	71.5762	-56.9932	-130.222	67.2296	-78.8601	-128.305	64.4113	-107.292	-162.03	77.5182	-72.1877	-158.033	71.8871	-94.8837	-159.809	67.298	-124.24	-192.358	75.1485	-66.6275	-190.395	70.7236	-91.5735	-186.731	63.6265	-118.389	-216.747	69.5902	-47.199	-226.223	64.0604	-67.326	-231.801	62.3638	-89.2912	-197.523	96.4035	-15.1266	-200.706	108.79	11.1442	-164.16	102.37	3.7751	
11	0.0916667	-141.683	83.7698	31.3773	-113.81	68.2184	31.3986	-91.608	57.307	22.987	-74.9713	47.0448	19.5252	-135.439	71.1713	-56.9719	-129.449	66.6638	-81.1814	-129.021	63.9459	-103.554	-162.231	77.3732	-69.1523	-159.878	72.3673	-97.1931	-157.678	67.7683	-127.49	-190.603	75.1496	-64.4644	-186.799	69.8458	-90.596	-188.77	63.9095	-115.072	-216.443	68.5425	-52.3759	-223.529	63.5668	-65.5201	-234.401	62.9222	-90.1174	-196.124	97.0403	-17.2702	-202.556	110.464	12.2634	-160.772	99.187	3.50787	
